<svg fill="none" height="48" viewBox="0 0 48 48" width="48" xmlns="http://www.w3.org/2000/svg"><path d="m0 0h48v48h-48z" fill="#f7f9fa"/><path d="m33 14.25h-7.5c-.4219 0-.75.375-.75.75v18c0 .4219.3281.75.75.75h7.5c.375 0 .75-.3281.75-.75v-18c0-.375-.375-.75-.75-.75zm-7.5-2.25h7.5c1.6406 0 3 1.3594 3 3v18c0 1.6875-1.3594 3-3 3h-7.5c-1.6875 0-3-1.3125-3-3v-18c0-1.6406 1.3125-3 3-3zm-4.5 6v2.25h-5.625c-.6562 0-1.125.5156-1.125 1.125v11.25c0 .6562.4688 1.125 1.125 1.125h5.6719c.1406.8906.5156 1.6406 1.0781 2.25h-6.75c-1.875 0-3.375-1.5-3.375-3.375v-11.25c0-1.8281 1.5-3.375 3.375-3.375zm-3.75 9h1.5c.375 0 .75.375.75.75v1.5c0 .4219-.375.75-.75.75h-1.5c-.4219 0-.75-.3281-.75-.75v-1.5c0-.375.3281-.75.75-.75zm10.5.75v-1.5c0-.375.3281-.75.75-.75h1.5c.375 0 .75.375.75.75v1.5c0 .4219-.375.75-.75.75h-1.5c-.4219 0-.75-.3281-.75-.75zm-10.5-5.25h1.5c.375 0 .75.375.75.75v1.5c0 .4219-.375.75-.75.75h-1.5c-.4219 0-.75-.3281-.75-.75v-1.5c0-.375.3281-.75.75-.75zm10.5-5.25c0-.375.3281-.75.75-.75h1.5c.375 0 .75.375.75.75v1.5c0 .4219-.375.75-.75.75h-1.5c-.4219 0-.75-.3281-.75-.75zm.75 6.75c-.4219 0-.75-.3281-.75-.75v-1.5c0-.375.3281-.75.75-.75h1.5c.375 0 .75.375.75.75v1.5c0 .4219-.375.75-.75.75z" fill="#c7cdd4"/></svg>